<svg xmlns="http://www.w3.org/2000/svg" version="1.0" preserveAspectRatio="xMidYMid meet" viewBox="87 40.13 123.92 153.2">
    <metadata>
    Created by potrace 1.10, written by Peter Selinger 2001-2011
    </metadata>
    <g transform="translate(0.000000,300.000000) scale(0.100000,-0.100000)" fill="#000000" stroke="none">
        <path d="M1895 2587 c-92 -36 -110 -72 -100 -201 8 -114 1 -126 -105 -162 -124 -43 -147 -68 -170 -186 -16 -81 -43 -113 -145 -174 -102 -62 -153 -112 -191 -190 -33 -69 -26 -89 48 -138 52 -34 141 -66 153 -54 8 7 93 229 109 282 11 39 36 61 36 33 0 -14 82 -285 116 -380 9 -26 14 -50 12 -53 -3 -2 -18 2 -34 10 -16 8 -85 22 -154 31 -265 33 -368 93 -377 218 -3 44 1 60 27 105 35 60 80 95 203 159 110 57 138 90 149 180 11 95 30 121 122 168 96 49 136 91 136 142 0 43 -36 95 -81 119 -46 23 -56 12 -16 -19 61 -46 58 -110 -7 -152 -13 -9 -68 -25 -121 -36 -167 -33 -187 -49 -234 -192 -38 -113 -78 -173 -171 -260 -54 -50 -67 -67 -52 -67 11 0 25 7 32 15 7 9 15 14 17 12 6 -7 144 139 141 149 -1 5 8 28 20 51 12 23 22 49 22 58 0 9 5 13 10 10 6 -3 10 3 10 15 0 38 48 124 80 143 16 10 35 15 40 12 6 -3 16 -3 23 2 6 4 17 8 22 10 66 15 176 51 189 62 9 8 19 11 22 9 9 -10 -59 -44 -126 -64 -91 -26 -134 -70 -148 -154 -16 -87 -36 -115 -137 -192 -50 -37 -97 -77 -107 -88 -9 -11 -20 -20 -25 -20 -16 0 -63 -98 -69 -144 -8 -55 14 -121 51 -156 13 -13 22 -27 18 -33 -3 -6 -1 -7 5 -3 7 4 12 4 12 -1 0 -26 171 -82 257 -84 88 -2 164 -14 215 -34 36 -14 37 -14 58 15 11 16 16 31 12 34 -10 6 -53 127 -55 155 0 11 -5 17 -9 15 -4 -3 -8 32 -8 78 0 49 -4 78 -9 70 -7 -11 -10 -10 -15 3 -3 9 -6 26 -5 38 0 21 1 21 9 2 7 -16 9 -11 9 20 1 29 -2 36 -9 25 -7 -11 -10 -3 -10 29 0 50 49 151 88 182 28 21 42 18 22 -6 -8 -9 -8 -15 -2 -15 6 0 14 -21 17 -47 12 -85 111 -394 141 -440 13 -21 13 -23 -4 -23 -19 0 -45 24 -55 50 -5 13 -6 13 -6 0 -2 -32 29 -60 65 -60 19 0 34 -5 34 -10 0 -16 39 12 46 32 3 10 10 18 16 18 5 0 7 -7 4 -16 -3 -8 -2 -12 4 -9 18 11 11 -7 -16 -43 -15 -19 -36 -57 -46 -86 -11 -28 -31 -66 -44 -83 -14 -18 -19 -30 -12 -27 7 2 26 26 41 52 24 39 30 44 38 29 18 -31 -15 -82 -78 -124 -32 -21 -64 -51 -71 -66 -17 -35 -36 -24 -29 17 l6 31 -14 -30 c-12 -27 -14 -28 -20 -10 -4 11 -11 30 -16 43 -5 13 -9 34 -9 48 0 18 -5 24 -17 22 -13 -2 -19 5 -21 24 -5 46 -71 68 -232 78 -155 10 -212 21 -285 55 -107 51 -204 192 -191 281 3 24 13 58 21 75 14 26 19 28 31 18 13 -10 17 -10 25 2 5 8 9 19 9 25 0 7 21 35 46 63 54 61 45 66 -23 12 -58 -45 -93 -86 -129 -148 -32 -54 -43 -159 -24 -218 15 -46 79 -118 120 -135 17 -7 30 -14 30 -17 0 -14 -45 -135 -67 -177 -28 -56 -80 -116 -100 -116 -7 0 -13 -3 -13 -7 0 -5 89 -7 197 -5 118 2 192 6 184 12 -12 7 -10 21 14 87 16 43 37 98 48 122 l19 44 97 -6 c134 -7 231 -51 231 -105 0 -32 34 -103 61 -128 18 -17 43 -20 203 -24 99 -3 183 -4 185 -3 2 1 -15 23 -38 49 -39 45 -141 236 -141 266 0 8 14 27 31 44 34 32 35 55 7 163 l-14 54 -17 -27 c-10 -14 -20 -47 -23 -73 -9 -73 -12 -80 -28 -57 -37 53 -173 527 -161 564 4 12 21 19 58 24 81 11 122 26 160 60 51 46 70 90 64 147 -6 47 -13 63 -63 144 l-24 40 2 -102 c3 -92 1 -104 -20 -132 -14 -20 -18 -31 -10 -31 21 0 55 43 63 79 5 22 10 29 15 21 4 -7 6 -20 5 -29 -2 -9 -4 -27 -4 -41 -1 -16 -19 -44 -51 -76 -45 -47 -56 -52 -107 -59 -32 -4 -82 -16 -111 -27 -54 -20 -122 -71 -122 -91 0 -6 12 1 28 15 15 14 40 34 57 44 30 19 30 19 -7 -27 -54 -66 -76 -123 -80 -206 -3 -76 -6 -80 -23 -31 -18 56 -39 58 -85 9 -37 -39 -54 -71 -30 -56 5 3 3 -7 -5 -22 -8 -15 -15 -32 -15 -38 0 -5 -12 -40 -26 -77 -28 -73 -43 -82 -88 -53 -13 9 -28 15 -32 13 -13 -4 -63 32 -74 52 -6 11 -2 32 14 66 36 77 62 101 234 208 37 23 87 85 87 108 0 3 3 10 8 14 4 4 7 19 7 34 0 41 21 92 46 116 12 12 44 29 71 39 97 34 133 54 133 74 0 11 5 23 10 26 6 3 10 49 10 103 0 79 4 103 20 130 11 17 23 32 27 33 5 0 15 2 23 5 8 2 29 6 45 9 29 5 28 5 -5 -9 -19 -8 -43 -18 -52 -22 -27 -10 -48 -66 -44 -120 9 -129 20 -204 28 -204 5 0 7 4 3 9 -3 5 -1 12 5 16 13 8 13 58 -1 128 -22 108 13 177 91 177 68 0 92 -38 64 -104 -7 -18 -5 -18 24 3 23 16 32 30 32 51 0 39 -43 87 -88 100 -45 12 -59 12 -97 -3z m-409 -403 c-9 -8 -16 -23 -16 -33 0 -9 -5 -22 -12 -29 -6 -6 -13 -28 -15 -49 -4 -39 -31 -91 -60 -114 -18 -16 -18 -14 11 71 9 25 18 61 21 81 3 21 17 49 33 65 15 15 21 24 13 19 -9 -5 -12 -4 -7 3 4 6 13 9 21 5 9 -3 15 1 16 8 0 10 2 11 6 2 2 -7 -3 -20 -11 -29z m-536 -596 c0 -5 18 -35 40 -67 40 -59 111 -121 139 -121 9 0 28 -6 42 -14 14 -7 43 -16 65 -20 59 -11 74 -16 74 -28 0 -11 -151 -6 -181 7 -11 4 -19 0 -23 -12 -3 -10 -8 -22 -11 -28 -3 -6 31 -9 95 -7 55 2 100 1 100 -4 0 -9 -50 -76 -64 -86 -8 -5 -7 -8 1 -8 9 0 8 -12 -3 -44 -12 -35 -21 -46 -42 -49 -37 -7 -190 -2 -198 5 -6 6 39 73 61 91 6 5 3 7 -7 3 -10 -3 -18 -3 -18 -1 0 9 25 61 36 75 6 8 14 34 17 56 4 34 1 46 -19 67 -13 14 -32 28 -43 32 -27 8 -81 92 -81 126 0 15 -3 36 -7 46 -6 16 -5 16 10 4 9 -7 17 -18 17 -23z m1046 -419 c19 -31 34 -59 34 -62 0 -3 -52 -7 -115 -9 -97 -3 -115 -1 -115 12 1 20 25 47 80 90 25 19 52 41 60 49 13 13 15 12 19 -5 1 -10 18 -44 37 -75z"/>
        <path d="M1674 1944 c-3 -10 -10 -30 -15 -43 -9 -21 -8 -23 4 -12 16 13 31 60 23 69 -3 2 -8 -4 -12 -14z"/>
        <path d="M1950 1768 c0 -13 -11 -40 -25 -60 -14 -20 -25 -47 -25 -58 0 -18 6 -15 35 20 35 42 48 101 25 115 -6 3 -10 -4 -10 -17z"/>
        <path d="M1777 1409 c5 -59 3 -69 -17 -89 -12 -12 -19 -25 -15 -28 4 -4 15 4 26 17 20 24 24 92 9 141 -5 15 -6 -2 -3 -41z"/>
    </g>
</svg>